<?xml version="1.0" encoding="utf-8"?>
<!-- Generator: Adobe Illustrator 15.1.0, SVG Export Plug-In . SVG Version: 6.00 Build 0)  -->
<!DOCTYPE svg PUBLIC "-//W3C//DTD SVG 1.1//EN" "http://www.w3.org/Graphics/SVG/1.1/DTD/svg11.dtd">
<svg version="1.1" xmlns="http://www.w3.org/2000/svg" xmlns:xlink="http://www.w3.org/1999/xlink" x="0px" y="0px"
	 width="186.422px" height="186.421px" viewBox="0 0 186.422 186.421" enable-background="new 0 0 186.422 186.421"
	 xml:space="preserve">
<g id="Layer_2">
	<rect fill="none" width="186.422" height="186.421"/>
</g>
<g id="Layer_1">
	<g>
		<rect x="141.668" fill="#231F20" width="44.754" height="44.755"/>
		<rect y="141.665" fill="#231F20" width="44.754" height="44.756"/>
		<g>
			<path fill="#ED1C24" d="M93.259,100.834V87.642c12.045-2.105,14.529-5.166,14.529-17.017V38.124
				c0-18.735,11.955-26.384,37.195-27.146v12.808l-2.105,0.19c-12.615,1.146-12.809,5.546-12.809,13.383v32.502
				c0,16.058-4.207,17.588-17.016,23.896c13.004,4.971,17.016,8.603,17.016,23.71v32.497c0,7.646,0.193,12.43,12.809,13.379
				l2.105,0.196v12.811c-24.854-0.39-37.195-7.082-37.195-26.002v-32.504C107.788,105.993,105.304,102.933,93.259,100.834z"/>
		</g>
		<g>
			<path fill="#231F20" d="M78.788,117.844v32.504c0,18.92-12.342,25.612-37.195,26.002v-12.811l2.105-0.196
				c12.615-0.949,12.809-5.732,12.809-13.379v-32.497c0-15.107,4.012-18.739,17.016-23.71c-12.809-6.308-17.016-7.838-17.016-23.896
				V37.359c0-7.837-0.193-12.236-12.809-13.383l-2.105-0.19V10.979c25.24,0.762,37.195,8.41,37.195,27.146v32.501
				c0,11.851,2.484,14.911,14.529,17.017v13.192C81.272,102.933,78.788,105.993,78.788,117.844z"/>
		</g>
		<g>
			<path fill="#ED1C24" d="M78.746,117.802v32.504c0,18.92-12.342,25.613-37.195,26.002v-12.811l2.105-0.195
				c12.615-0.949,12.809-5.732,12.809-13.379v-32.498c0-15.107,4.09-18.585,17.016-23.71c-0.051,0.021,5.949-3.25,19.795-6.115
				v13.192C81.23,102.891,78.746,105.951,78.746,117.802z"/>
		</g>
		<g>
			<path fill="#231F20" d="M93.3,100.792V87.6c13.846,2.865,19.846,6.136,19.795,6.115c12.926,5.125,17.016,8.603,17.016,23.71
				v32.498c0,7.646,0.193,12.43,12.809,13.379l2.105,0.195v12.811c-24.854-0.389-37.195-7.082-37.195-26.002v-32.504
				C107.829,105.951,105.345,102.891,93.3,100.792z"/>
		</g>
	</g>
	<polygon fill="#231F20" points="181.444,176.315 144.61,176.315 144.61,163.482 181.361,164.482 	"/>
	<polygon fill="#231F20" points="4.819,10.967 41.653,10.967 41.653,23.8 4.902,22.8 	"/>
</g>
</svg>
